<?xml version="1.0" encoding="iso-8859-1"?>
<!-- Uploaded to: SVG Repo, www.svgrepo.com, Generator: SVG Repo Mixer Tools -->
<svg fill="#000000" height="800px" width="800px" version="1.1" id="Layer_1" xmlns="http://www.w3.org/2000/svg" xmlns:xlink="http://www.w3.org/1999/xlink" 
	 viewBox="0 0 512 512" xml:space="preserve">
<g>
	<g>
		<g>
			<path d="M448,0H64C52.218,0,42.667,9.551,42.667,21.333v469.333C42.667,502.449,52.218,512,64,512h384
				c11.782,0,21.333-9.551,21.333-21.333V21.333C469.333,9.551,459.782,0,448,0z M426.667,469.333H85.333V42.667h341.333V469.333z"
				/>
			<path d="M234.667,256v21.333c0,11.782,9.551,21.333,21.333,21.333h128c11.782,0,21.333-9.551,21.333-21.333V256
				c0-27.917-13.405-52.697-34.128-68.265c8.033-10.696,12.794-23.99,12.794-38.401c0-35.355-28.645-64-64-64s-64,28.645-64,64
				c0,14.411,4.762,27.706,12.794,38.401C248.072,203.303,234.667,228.083,234.667,256z M277.333,256
				c0-23.567,19.099-42.667,42.667-42.667s42.667,19.099,42.667,42.667H277.333z M298.667,149.333
				c0-11.791,9.542-21.333,21.333-21.333s21.333,9.542,21.333,21.333s-9.542,21.333-21.333,21.333S298.667,161.125,298.667,149.333z
				"/>
			<path d="M128,149.333h42.667c11.782,0,21.333-9.551,21.333-21.333c0-11.782-9.551-21.333-21.333-21.333H128
				c-11.782,0-21.333,9.551-21.333,21.333C106.667,139.782,116.218,149.333,128,149.333z"/>
			<path d="M128,277.333h21.333c11.782,0,21.333-9.551,21.333-21.333s-9.551-21.333-21.333-21.333H128
				c-11.782,0-21.333,9.551-21.333,21.333S116.218,277.333,128,277.333z"/>
			<path d="M128,213.333h85.333c11.782,0,21.333-9.551,21.333-21.333s-9.551-21.333-21.333-21.333H128
				c-11.782,0-21.333,9.551-21.333,21.333S116.218,213.333,128,213.333z"/>
			<path d="M128,362.667h256c11.782,0,21.333-9.551,21.333-21.333c0-11.782-9.551-21.333-21.333-21.333H128
				c-11.782,0-21.333,9.551-21.333,21.333C106.667,353.115,116.218,362.667,128,362.667z"/>
			<path d="M128,426.667h42.667c11.782,0,21.333-9.551,21.333-21.333c0-11.782-9.551-21.333-21.333-21.333H128
				c-11.782,0-21.333,9.551-21.333,21.333C106.667,417.115,116.218,426.667,128,426.667z"/>
			<path d="M384,384H234.667c-11.782,0-21.333,9.551-21.333,21.333c0,11.782,9.551,21.333,21.333,21.333H384
				c11.782,0,21.333-9.551,21.333-21.333C405.333,393.551,395.782,384,384,384z"/>
		</g>
	</g>
</g>
</svg>